<svg width="29.281250" height="47.687500" viewBox="0 0 29.2812 47.6875" fill="none" xmlns="http://www.w3.org/2000/svg" xmlns:xlink="http://www.w3.org/1999/xlink">
	<desc>
			Created with Pixso.
	</desc>
	<defs/>
	<path id="?" d="M17.17 33.5L9.6 33.5L9.6 32.92C9.65 24.73 11.96 22.2 16 19.7C18.75 17.98 20.85 15.79 20.85 12.62C20.85 9.04 18.06 6.73 14.57 6.73C11.37 6.73 8.28 8.78 8.07 13.04L0 13.04C0.21 4.42 6.67 0 14.62 0C23.31 0 29.28 4.82 29.28 12.5C29.28 17.7 26.67 21.12 22.5 23.62C18.78 25.89 17.21 28.09 17.17 32.92L17.17 33.5ZM18.57 42.68C18.56 45.45 16.26 47.68 13.57 47.68C10.81 47.68 8.56 45.45 8.57 42.68C8.56 39.95 10.81 37.73 13.57 37.73C16.26 37.73 18.56 39.95 18.57 42.68Z" fill="#FFFFFF" fill-opacity="0.459770" fill-rule="evenodd"/>
</svg>
